<?xml version="1.0" encoding="iso-8859-1"?>
<!-- Generator: Adobe Illustrator 19.0.0, SVG Export Plug-In . SVG Version: 6.00 Build 0)  -->
<svg version="1.1" id="Capa_1" xmlns="http://www.w3.org/2000/svg" xmlns:xlink="http://www.w3.org/1999/xlink" x="0px" y="0px"
	 viewBox="0 0 512 512" style="enable-background:new 0 0 512 512;" xml:space="preserve">
<path style="fill:#4DB6AC;" d="M500.08,178.616L500.08,178.616l-226-170.673c-10.645-8.039-25.514-8.038-36.16,0l-226,170.673
	C4.456,184.253,0,193.202,0,202.555v277.531c0,16.542,13.458,30,30,30h452c16.542,0,30-13.458,30-30V202.555
	C512,193.202,507.544,184.253,500.08,178.616z"/>
<path style="fill:#339C91;" d="M500.08,178.616L500.08,178.616l-226-170.673c-5.323-4.02-11.701-6.029-18.08-6.029v508.172h226
	c16.542,0,30-13.458,30-30V202.555C512,193.202,507.544,184.253,500.08,178.616z"/>
<g>
	<path style="fill:#FFEE58;" d="M355.422,290.306c-26.723-26.582-62.031-41.22-99.422-41.22s-72.699,14.639-99.422,41.22
		c-5.872,5.842-15.37,5.817-21.213-0.056c-5.842-5.874-5.817-15.371,0.057-21.213c32.382-32.211,75.204-49.951,120.578-49.951
		s88.196,17.74,120.578,49.951c5.874,5.842,5.898,15.34,0.057,21.213C370.793,296.122,361.297,296.15,355.422,290.306z"/>
	<path style="fill:#FFEE58;" d="M312.641,337.205c-15.036-15.672-35.151-24.303-56.641-24.303s-41.604,8.631-56.641,24.303
		c-5.735,5.978-15.23,6.174-21.209,0.439c-5.978-5.735-6.175-15.23-0.439-21.208c20.747-21.625,48.551-33.534,78.289-33.534
		s57.542,11.909,78.289,33.534c5.735,5.978,5.538,15.473-0.439,21.208C327.877,343.375,318.382,343.188,312.641,337.205z"/>
	<path style="fill:#FFEE58;" d="M268.903,383.19c-3.142-4.114-7.845-6.473-12.903-6.473s-9.762,2.359-12.903,6.473
		c-5.027,6.584-14.442,7.846-21.025,2.818c-6.584-5.028-7.846-14.441-2.818-21.025c8.865-11.608,22.259-18.266,36.747-18.266
		c14.488,0,27.882,6.658,36.747,18.266c5.027,6.584,3.766,15.997-2.818,21.025C283.351,391.031,273.937,389.781,268.903,383.19z"/>
</g>
<g>
	<path style="fill:#FDD747;" d="M376.578,269.037c-32.382-32.211-75.204-49.951-120.578-49.951v30
		c37.391,0,72.699,14.639,99.422,41.22c5.875,5.844,15.371,5.815,21.213-0.056C382.477,284.377,382.452,274.879,376.578,269.037z"/>
	<path style="fill:#FDD747;" d="M334.289,316.435c-20.747-21.625-48.551-33.534-78.289-33.534v30
		c21.489,0,41.604,8.631,56.641,24.303c5.741,5.983,15.236,6.17,21.209,0.439C339.827,331.909,340.024,322.413,334.289,316.435z"/>
	<path style="fill:#FDD747;" d="M292.747,364.983c-8.865-11.608-22.259-18.266-36.747-18.266v30c5.059,0,9.762,2.359,12.903,6.473
		c5.034,6.591,14.448,7.842,21.025,2.818C296.513,380.98,297.774,371.567,292.747,364.983z"/>
</g>
<g>
</g>
<g>
</g>
<g>
</g>
<g>
</g>
<g>
</g>
<g>
</g>
<g>
</g>
<g>
</g>
<g>
</g>
<g>
</g>
<g>
</g>
<g>
</g>
<g>
</g>
<g>
</g>
<g>
</g>
</svg>
