<?xml version="1.0" encoding="iso-8859-1"?>
<!-- Generator: Adobe Illustrator 19.0.0, SVG Export Plug-In . SVG Version: 6.00 Build 0)  -->
<svg version="1.1" id="Capa_1" xmlns="http://www.w3.org/2000/svg" xmlns:xlink="http://www.w3.org/1999/xlink" x="0px" y="0px"
	 viewBox="0 0 512 512" style="enable-background:new 0 0 512 512;" xml:space="preserve">
<path style="fill:#339C91;" d="M125,346c-8.284,0-15-6.716-15-15v-69c0-8.284,6.716-15,15-15s15,6.716,15,15v69
	C140,339.284,133.284,346,125,346z"/>
<path style="fill:#1A8377;" d="M125,247v99c8.284,0,15-6.716,15-15v-69C140,253.716,133.284,247,125,247z"/>
<path style="fill:#4DB6AC;" d="M467,486H45c-24.813,0-45-20.187-45-45v-80c0-24.813,20.187-45,45-45h422c24.813,0,45,20.187,45,45
	v80C512,465.813,491.813,486,467,486z"/>
<path style="fill:#339C91;" d="M467,316H125v170h342c24.813,0,45-20.187,45-45v-80C512,336.187,491.813,316,467,316z"/>
<g>
	<path style="fill:#40C4FF;" d="M224.422,97.22C197.699,70.639,162.391,56,125,56S52.301,70.639,25.578,97.22
		c-5.872,5.843-15.37,5.817-21.213-0.056c-5.842-5.874-5.817-15.371,0.057-21.213C36.804,43.74,79.626,26,125,26
		s88.196,17.74,120.578,49.951c5.874,5.842,5.898,15.34,0.057,21.213C239.793,103.036,230.297,103.064,224.422,97.22z"/>
	<path style="fill:#40C4FF;" d="M181.641,144.119c-15.036-15.672-35.151-24.303-56.641-24.303s-41.604,8.631-56.641,24.303
		c-5.735,5.978-15.23,6.175-21.209,0.439c-5.978-5.735-6.175-15.23-0.439-21.208C67.458,101.725,95.262,89.815,125,89.815
		s57.542,11.909,78.289,33.534c5.735,5.978,5.538,15.473-0.439,21.208C196.877,150.289,187.382,150.101,181.641,144.119z"/>
	<path style="fill:#40C4FF;" d="M137.903,190.104c-3.142-4.114-7.845-6.473-12.903-6.473c-5.058,0-9.762,2.359-12.903,6.473
		c-5.027,6.584-14.442,7.845-21.025,2.818c-6.584-5.028-7.846-14.441-2.818-21.025c8.865-11.608,22.259-18.266,36.747-18.266
		s27.882,6.658,36.747,18.266c5.027,6.584,3.766,15.997-2.818,21.025C152.351,197.945,142.937,196.694,137.903,190.104z"/>
</g>
<g>
	<path style="fill:#FDD747;" d="M447,436c-8.284,0-15-6.716-15-15v-40c0-8.284,6.716-15,15-15s15,6.716,15,15v40
		C462,429.284,455.284,436,447,436z"/>
	<path style="fill:#FDD747;" d="M397,436c-8.284,0-15-6.716-15-15v-40c0-8.284,6.716-15,15-15s15,6.716,15,15v40
		C412,429.284,405.284,436,397,436z"/>
	<path style="fill:#FDD747;" d="M347,436c-8.284,0-15-6.716-15-15v-40c0-8.284,6.716-15,15-15s15,6.716,15,15v40
		C362,429.284,355.284,436,347,436z"/>
	<path style="fill:#FDD747;" d="M297,436c-8.284,0-15-6.716-15-15v-40c0-8.284,6.716-15,15-15s15,6.716,15,15v40
		C312,429.284,305.284,436,297,436z"/>
</g>
<g>
	<path style="fill:#32A4EA;" d="M245.578,75.951C213.196,43.74,170.374,26,125,26v30c37.391,0,72.699,14.639,99.422,41.22
		c5.875,5.844,15.371,5.815,21.213-0.056C251.477,91.291,251.452,81.793,245.578,75.951z"/>
	<path style="fill:#32A4EA;" d="M203.289,123.349C182.542,101.725,154.738,89.815,125,89.815v30
		c21.489,0,41.604,8.631,56.641,24.303c5.741,5.983,15.236,6.17,21.209,0.439C208.827,138.822,209.024,129.327,203.289,123.349z"/>
	<path style="fill:#32A4EA;" d="M161.747,171.896c-8.865-11.608-22.259-18.266-36.747-18.266v30c5.059,0,9.762,2.359,12.903,6.473
		c5.034,6.591,14.448,7.841,21.025,2.818C165.513,187.894,166.774,178.48,161.747,171.896z"/>
</g>
<g>
</g>
<g>
</g>
<g>
</g>
<g>
</g>
<g>
</g>
<g>
</g>
<g>
</g>
<g>
</g>
<g>
</g>
<g>
</g>
<g>
</g>
<g>
</g>
<g>
</g>
<g>
</g>
<g>
</g>
</svg>
